<svg width="36" height="42" viewBox="0 0 36 42" fill="none" xmlns="http://www.w3.org/2000/svg">
<path fill-rule="evenodd" clip-rule="evenodd" d="M17.838 0C18.644 0 19.2975 0.653415 19.2975 1.45946V23.8819L26.5359 16.6437C27.1057 16.0737 28.0297 16.0737 28.5996 16.6437C29.1697 17.2136 29.1697 18.1377 28.5996 18.7077L18.87 28.4374C18.3 29.0073 17.376 29.0073 16.806 28.4374L7.07627 18.7077C6.5063 18.1377 6.5063 17.2136 7.07627 16.6437C7.64623 16.0737 8.5703 16.0737 9.14027 16.6437L16.3785 23.8819V1.45946C16.3785 0.653415 17.0319 0 17.838 0ZM1.62162 29.027C2.51721 29.027 3.24324 29.7532 3.24324 30.6487V35.5135C3.24324 37.3099 4.68859 38.7568 6.47465 38.7568H29.1931C30.9824 38.7568 32.4324 37.3064 32.4324 35.5135V30.6487C32.4324 29.7532 33.1586 29.027 34.054 29.027C34.9495 29.027 35.6757 29.7532 35.6757 30.6487V35.5135C35.6757 39.0944 32.7768 42 29.1931 42H6.47465C2.8871 42 0 39.0908 0 35.5135V30.6487C0 29.7532 0.726032 29.027 1.62162 29.027Z" fill="black"/>
</svg>
