<svg width="46" height="34" viewBox="0 0 46 34" fill="none" xmlns="http://www.w3.org/2000/svg">
<path d="M42.444 0.333252H3.55512C2.81841 0.333252 2.11187 0.62591 1.59094 1.14684C1.07 1.66778 0.777344 2.37432 0.777344 3.11103V30.8888C0.777344 31.6255 1.07 32.3321 1.59094 32.853C2.11187 33.3739 2.81841 33.6666 3.55512 33.6666H42.444C43.1807 33.6666 43.8873 33.3739 44.4082 32.853C44.9291 32.3321 45.2218 31.6255 45.2218 30.8888V3.11103C45.2218 2.37432 44.9291 1.66778 44.4082 1.14684C43.8873 0.62591 43.1807 0.333252 42.444 0.333252ZM40.3051 30.8888H5.86068L15.5829 20.8333L13.5829 18.9027L3.55512 29.2777V5.22214L20.819 22.4027C21.3395 22.9201 22.0435 23.2105 22.7773 23.2105C23.5112 23.2105 24.2152 22.9201 24.7357 22.4027L42.444 4.79158V29.0971L32.2218 18.8749L30.2635 20.8333L40.3051 30.8888ZM5.37457 3.11103H40.194L22.7773 20.4305L5.37457 3.11103Z" fill="#E76F51"/>
</svg>
