<svg width="33" height="32" viewBox="0 0 33 32" fill="none" xmlns="http://www.w3.org/2000/svg">
<path d="M17.6246 24.1753V16.9175H20.3224L20.7234 14.0758H17.6246V12.2658C17.6246 11.4458 17.8764 10.8844 19.1731 10.8844H20.8161V8.35089C20.0167 8.27314 19.2131 8.23559 18.4091 8.23843C16.0245 8.23843 14.3873 9.55964 14.3873 11.9851V14.0705H11.707V16.9122H14.3931V24.1753H17.6246Z" fill="white"/>
<path d="M32.0325 16.2069C32.0325 24.3663 25.0022 31.031 16.2662 31.031C7.53026 31.031 0.5 24.3663 0.5 16.2069C0.5 8.04747 7.53026 1.38281 16.2662 1.38281C25.0022 1.38281 32.0325 8.04747 32.0325 16.2069Z" stroke="white"/>
</svg>
