<svg width="32" height="40" viewBox="0 0 32 40" fill="none" xmlns="http://www.w3.org/2000/svg">
<circle cx="26.6496" cy="5.16916" r="5.16916" fill="#E76F51" fill-opacity="0.3"/>
<path d="M4.49499 31.3787C3.65541 31.3787 2.83469 31.1297 2.1366 30.6632C1.43852 30.1968 0.894427 29.5338 0.573134 28.7582C0.25184 27.9825 0.167774 27.129 0.331568 26.3055C0.495362 25.4821 0.899657 24.7257 1.49333 24.132C2.087 23.5383 2.84339 23.134 3.66684 22.9702C4.49029 22.8064 5.34381 22.8905 6.11948 23.2118C6.89516 23.5331 7.55813 24.0772 8.02458 24.7753C8.49102 25.4734 8.73999 26.2941 8.73999 27.1337C8.73999 28.2595 8.29275 29.3392 7.49666 30.1353C6.70057 30.9314 5.62084 31.3787 4.49499 31.3787ZM4.49499 25.9676C4.26191 25.9676 4.03408 26.0368 3.84042 26.1665C3.64675 26.2963 3.49599 26.4806 3.40727 26.6961C3.31854 26.9117 3.29585 27.1487 3.34208 27.3772C3.3883 27.6056 3.50136 27.8152 3.66689 27.9793C3.83243 28.1434 4.04299 28.2546 4.27184 28.2988C4.5007 28.3431 4.73753 28.3183 4.95229 28.2277C5.16705 28.1371 5.35005 27.9847 5.47806 27.79C5.60608 27.5952 5.67335 27.3667 5.67132 27.1337C5.67132 26.9797 5.64082 26.8272 5.58158 26.685C5.52234 26.5429 5.43554 26.4139 5.32617 26.3055C5.2168 26.1971 5.08704 26.1114 4.94438 26.0534C4.80172 25.9954 4.64899 25.9662 4.49499 25.9676Z" fill="black"/>
<path d="M26.9466 20.1782C26.1062 20.1802 25.284 19.9327 24.5844 19.4671C23.8847 19.0014 23.3391 18.3385 23.0165 17.5624C22.6939 16.7863 22.609 15.932 22.7725 15.1076C22.9359 14.2832 23.3405 13.5259 23.9347 12.9316C24.529 12.3373 25.2863 11.9328 26.1107 11.7693C26.9351 11.6058 27.7895 11.6908 28.5656 12.0133C29.3417 12.3359 30.0046 12.8816 30.4702 13.5812C30.9359 14.2809 31.1834 15.103 31.1814 15.9434C31.1787 17.0657 30.7317 18.1413 29.9381 18.9349C29.1445 19.7285 28.0689 20.1755 26.9466 20.1782ZM26.9466 14.7671C26.7135 14.7651 26.4851 14.8324 26.2903 14.9604C26.0955 15.0884 25.9432 15.2714 25.8526 15.4861C25.762 15.7009 25.7372 15.9377 25.7814 16.1666C25.8257 16.3955 25.9369 16.606 26.101 16.7715C26.2651 16.9371 26.4747 17.0501 26.7031 17.0964C26.9316 17.1426 27.1686 17.1199 27.3842 17.0312C27.5997 16.9424 27.784 16.7917 27.9137 16.598C28.0434 16.4044 28.1127 16.1765 28.1127 15.9434C28.1127 15.6332 27.9902 15.3356 27.7718 15.1153C27.5534 14.8949 27.2568 14.7698 26.9466 14.7671Z" fill="black"/>
<path d="M15.6957 25.7732C14.8581 25.7732 14.0394 25.5249 13.343 25.0596C12.6466 24.5942 12.1038 23.9329 11.7833 23.159C11.4628 22.3852 11.3789 21.5338 11.5423 20.7123C11.7057 19.8909 12.109 19.1363 12.7013 18.544C13.2935 17.9518 14.0481 17.5485 14.8695 17.3851C15.691 17.2217 16.5425 17.3055 17.3163 17.6261C18.0901 17.9466 18.7515 18.4894 19.2168 19.1858C19.6821 19.8822 19.9305 20.7009 19.9305 21.5385C19.9305 22.6616 19.4843 23.7387 18.6901 24.5329C17.896 25.3271 16.8188 25.7732 15.6957 25.7732ZM15.6957 20.3724C15.4651 20.3724 15.2396 20.4408 15.0479 20.5689C14.8561 20.697 14.7066 20.8792 14.6184 21.0922C14.5301 21.3053 14.507 21.5398 14.552 21.766C14.597 21.9922 14.7081 22.1999 14.8711 22.363C15.0342 22.5261 15.242 22.6372 15.4682 22.6822C15.6944 22.7272 15.9289 22.7041 16.1419 22.6158C16.355 22.5275 16.5371 22.3781 16.6653 22.1863C16.7934 21.9946 16.8618 21.7691 16.8618 21.5385C16.8618 21.2292 16.7389 20.9326 16.5203 20.7139C16.3016 20.4952 16.005 20.3724 15.6957 20.3724Z" fill="black"/>
<path d="M15.6964 19.014C15.2895 19.014 14.8992 18.8524 14.6115 18.5646C14.3238 18.2769 14.1621 17.8866 14.1621 17.4797V4.61173C14.1621 4.2048 14.3238 3.81454 14.6115 3.52679C14.8992 3.23905 15.2895 3.07739 15.6964 3.07739C16.1034 3.07739 16.4936 3.23905 16.7814 3.52679C17.0691 3.81454 17.2308 4.2048 17.2308 4.61173V17.4797C17.2308 17.8866 17.0691 18.2769 16.7814 18.5646C16.4936 18.8524 16.1034 19.014 15.6964 19.014Z" fill="black"/>
<path d="M26.9484 13.4086C26.5415 13.4086 26.1512 13.2469 25.8635 12.9592C25.5757 12.6714 25.4141 12.2812 25.4141 11.8742V4.61173C25.4141 4.2048 25.5757 3.81454 25.8635 3.52679C26.1512 3.23905 26.5415 3.07739 26.9484 3.07739C27.3553 3.07739 27.7456 3.23905 28.0333 3.52679C28.3211 3.81454 28.4827 4.2048 28.4827 4.61173V11.8742C28.4827 12.2812 28.3211 12.6714 28.0333 12.9592C27.7456 13.2469 27.3553 13.4086 26.9484 13.4086Z" fill="black"/>
<path d="M4.49527 39.9999C4.08834 39.9999 3.69808 39.8382 3.41033 39.5505C3.12259 39.2628 2.96094 38.8725 2.96094 38.4656V31.203C2.96094 30.7961 3.12259 30.4058 3.41033 30.1181C3.69808 29.8304 4.08834 29.6687 4.49527 29.6687C4.9022 29.6687 5.29247 29.8304 5.58021 30.1181C5.86796 30.4058 6.02961 30.7961 6.02961 31.203V38.4656C6.02961 38.8725 5.86796 39.2628 5.58021 39.5505C5.29247 39.8382 4.9022 39.9999 4.49527 39.9999Z" fill="black"/>
<path d="M15.6964 39.9999C15.2895 39.9999 14.8992 39.8382 14.6115 39.5505C14.3238 39.2627 14.1621 38.8725 14.1621 38.4655V25.5976C14.1621 25.1906 14.3238 24.8004 14.6115 24.5126C14.8992 24.2249 15.2895 24.0632 15.6964 24.0632C16.1034 24.0632 16.4936 24.2249 16.7814 24.5126C17.0691 24.8004 17.2308 25.1906 17.2308 25.5976V38.4655C17.2308 38.8725 17.0691 39.2627 16.7814 39.5505C16.4936 39.8382 16.1034 39.9999 15.6964 39.9999Z" fill="black"/>
<path d="M26.9484 40C26.5415 40 26.1512 39.8383 25.8635 39.5506C25.5757 39.2628 25.4141 38.8726 25.4141 38.4656V20.0536C25.4141 19.6467 25.5757 19.2564 25.8635 18.9687C26.1512 18.6809 26.5415 18.5193 26.9484 18.5193C27.3553 18.5193 27.7456 18.6809 28.0333 18.9687C28.3211 19.2564 28.4827 19.6467 28.4827 20.0536V38.4656C28.4827 38.8726 28.3211 39.2628 28.0333 39.5506C27.7456 39.8383 27.3553 40 26.9484 40Z" fill="black"/>
<path d="M4.49527 24.6091C4.08834 24.6091 3.69808 24.4475 3.41033 24.1597C3.12259 23.872 2.96094 23.4817 2.96094 23.0748V4.66275C2.96094 4.25582 3.12259 3.86556 3.41033 3.57781C3.69808 3.29007 4.08834 3.12842 4.49527 3.12842C4.9022 3.12842 5.29247 3.29007 5.58021 3.57781C5.86796 3.86556 6.02961 4.25582 6.02961 4.66275V23.0748C6.02961 23.4817 5.86796 23.872 5.58021 24.1597C5.29247 24.4475 4.9022 24.6091 4.49527 24.6091Z" fill="black"/>
</svg>
