<svg width="34" height="32" viewBox="0 0 34 32" fill="none" xmlns="http://www.w3.org/2000/svg">
<path d="M17.4523 9.46484C19.5737 9.46484 19.8384 9.4722 20.6707 9.50898C21.5022 9.54575 22.0683 9.66859 22.5664 9.85101C23.0817 10.0378 23.5158 10.2909 23.9499 10.6991C24.347 11.0668 24.6542 11.5116 24.8502 12.0025C25.043 12.4711 25.1742 13.0051 25.2132 13.7884C25.2499 14.5725 25.2601 14.8219 25.2601 16.8204C25.2601 18.8189 25.2523 19.0683 25.2132 19.8524C25.1742 20.6357 25.043 21.169 24.8502 21.6383C24.6547 22.1295 24.3475 22.5744 23.9499 22.9417C23.5595 23.3156 23.0874 23.605 22.5664 23.7898C22.0691 23.9715 21.5022 24.095 20.6707 24.1318C19.8384 24.1664 19.5737 24.176 17.4523 24.176C15.3309 24.176 15.0663 24.1686 14.2339 24.1318C13.4024 24.095 12.8364 23.9715 12.3382 23.7898C11.8169 23.6055 11.3447 23.3161 10.9547 22.9417C10.5576 22.5741 10.2504 22.1293 10.0544 21.6383C9.86081 21.1697 9.73042 20.6357 9.69138 19.8524C9.65468 19.0683 9.64453 18.8189 9.64453 16.8204C9.64453 14.8219 9.65234 14.5725 9.69138 13.7884C9.73042 13.0043 9.86081 12.4718 10.0544 12.0025C10.2498 11.5113 10.5571 11.0664 10.9547 10.6991C11.3448 10.3249 11.817 10.0354 12.3382 9.85101C12.8364 9.66859 13.4016 9.54575 14.2339 9.50898C15.0663 9.47441 15.3309 9.46484 17.4523 9.46484ZM17.4523 13.1426C16.4169 13.1426 15.424 13.5301 14.6918 14.2198C13.9597 14.9095 13.5484 15.845 13.5484 16.8204C13.5484 17.7958 13.9597 18.7313 14.6918 19.421C15.424 20.1107 16.4169 20.4982 17.4523 20.4982C18.4877 20.4982 19.4807 20.1107 20.2128 19.421C20.9449 18.7313 21.3562 17.7958 21.3562 16.8204C21.3562 15.845 20.9449 14.9095 20.2128 14.2198C19.4807 13.5301 18.4877 13.1426 17.4523 13.1426ZM22.5274 12.9587C22.5274 12.7149 22.4245 12.481 22.2415 12.3086C22.0585 12.1362 21.8102 12.0393 21.5514 12.0393C21.2926 12.0393 21.0443 12.1362 20.8613 12.3086C20.6782 12.481 20.5754 12.7149 20.5754 12.9587C20.5754 13.2026 20.6782 13.4364 20.8613 13.6089C21.0443 13.7813 21.2926 13.8782 21.5514 13.8782C21.8102 13.8782 22.0585 13.7813 22.2415 13.6089C22.4245 13.4364 22.5274 13.2026 22.5274 12.9587ZM17.4523 14.6137C18.0735 14.6137 18.6693 14.8462 19.1086 15.2601C19.5479 15.6739 19.7946 16.2352 19.7946 16.8204C19.7946 17.4056 19.5479 17.9669 19.1086 18.3808C18.6693 18.7946 18.0735 19.0271 17.4523 19.0271C16.8311 19.0271 16.2353 18.7946 15.796 18.3808C15.3568 17.9669 15.11 17.4056 15.11 16.8204C15.11 16.2352 15.3568 15.6739 15.796 15.2601C16.2353 14.8462 16.8311 14.6137 17.4523 14.6137Z" fill="white"/>
<path d="M32.5637 16.2069C32.5637 24.3663 25.5335 31.031 16.7975 31.031C8.06151 31.031 1.03125 24.3663 1.03125 16.2069C1.03125 8.04746 8.06151 1.38281 16.7975 1.38281C25.5335 1.38281 32.5637 8.04746 32.5637 16.2069Z" stroke="white"/>
</svg>
