<svg width="33" height="32" viewBox="0 0 33 32" fill="none" xmlns="http://www.w3.org/2000/svg">
<path d="M13.726 21.7235V12.625H10.6576V21.7235H13.726ZM12.1922 11.3821C13.2622 11.3821 13.9282 10.6834 13.9282 9.81032C13.9083 8.91754 13.2623 8.23828 12.2125 8.23828C11.1629 8.23828 10.4766 8.91756 10.4766 9.81032C10.4766 10.6834 11.1424 11.3821 12.1722 11.3821H12.1921H12.1922ZM15.4244 21.7235H18.4928V16.6425C18.4928 16.3705 18.5127 16.0989 18.5938 15.9045C18.8156 15.3612 19.3205 14.7985 20.1681 14.7985C21.2784 14.7985 21.7226 15.6328 21.7226 16.8559V21.7234H24.7909V16.5064C24.7909 13.7118 23.2771 12.4114 21.2582 12.4114C19.6029 12.4114 18.8761 13.3233 18.4724 13.9444H18.4929V12.6248H15.4244C15.4647 13.4786 15.4244 21.7233 15.4244 21.7233L15.4244 21.7235Z" fill="white"/>
<path d="M32.0989 16.2069C32.0989 24.3663 25.0686 31.031 16.3326 31.031C7.59667 31.031 0.566406 24.3663 0.566406 16.2069C0.566406 8.04747 7.59667 1.38281 16.3326 1.38281C25.0686 1.38281 32.0989 8.04747 32.0989 16.2069Z" stroke="white"/>
</svg>
