<svg width="187" height="41" viewBox="0 0 187 41" fill="none" xmlns="http://www.w3.org/2000/svg">
<path d="M7.55664 16.2832V40.2188H2.21289V12.4238H7.16699L7.55664 16.2832ZM20.2666 22.2393V22.6289C20.2666 24.0885 20.0934 25.443 19.7471 26.6924C19.4131 27.9417 18.9183 29.0303 18.2627 29.958C17.6071 30.8734 16.7907 31.5908 15.8135 32.1104C14.8486 32.6175 13.7354 32.8711 12.4736 32.8711C11.249 32.8711 10.1852 32.6237 9.28223 32.1289C8.37923 31.6341 7.61849 30.9414 7 30.0508C6.39388 29.1478 5.90527 28.1025 5.53418 26.915C5.16309 25.7275 4.87858 24.4535 4.68066 23.0928V22.0723C4.87858 20.6126 5.16309 19.2767 5.53418 18.0645C5.90527 16.8398 6.39388 15.7822 7 14.8916C7.61849 13.9886 8.37305 13.2897 9.26367 12.7949C10.1667 12.3001 11.2243 12.0527 12.4365 12.0527C13.7106 12.0527 14.8301 12.2939 15.7949 12.7764C16.7721 13.2588 17.5885 13.9515 18.2441 14.8545C18.9121 15.7575 19.4131 16.8337 19.7471 18.083C20.0934 19.3324 20.2666 20.7178 20.2666 22.2393ZM14.9043 22.6289V22.2393C14.9043 21.3857 14.8301 20.6003 14.6816 19.8828C14.5456 19.153 14.3229 18.516 14.0137 17.9717C13.7168 17.4274 13.321 17.0068 12.8262 16.71C12.3438 16.4007 11.7562 16.2461 11.0635 16.2461C10.3337 16.2461 9.70898 16.3636 9.18945 16.5986C8.68229 16.8337 8.2679 17.1738 7.94629 17.6191C7.62467 18.0645 7.38346 18.5964 7.22266 19.2148C7.06185 19.8333 6.96289 20.5322 6.92578 21.3115V23.8906C6.98763 24.806 7.16081 25.6286 7.44531 26.3584C7.72982 27.0758 8.16895 27.6449 8.7627 28.0654C9.35645 28.486 10.1357 28.6963 11.1006 28.6963C11.8057 28.6963 12.3994 28.5417 12.8818 28.2324C13.3643 27.9108 13.7539 27.4717 14.0508 26.915C14.36 26.3584 14.5765 25.7152 14.7002 24.9854C14.8363 24.2555 14.9043 23.4701 14.9043 22.6289ZM28.9918 4V32.5H23.648V4H28.9918ZM28.231 21.7568H26.7652C26.7776 20.359 26.9631 19.0726 27.3218 17.8975C27.6806 16.71 28.1939 15.6833 28.8619 14.8174C29.5298 13.9391 30.3277 13.2588 31.2554 12.7764C32.1955 12.2939 33.2346 12.0527 34.3726 12.0527C35.3622 12.0527 36.259 12.195 37.063 12.4795C37.8795 12.7516 38.5783 13.1969 39.1597 13.8154C39.7535 14.4215 40.2112 15.2194 40.5328 16.209C40.8544 17.1986 41.0152 18.3984 41.0152 19.8086V32.5H35.6343V19.7715C35.6343 18.8809 35.5045 18.182 35.2447 17.6748C34.9973 17.1553 34.6324 16.7904 34.15 16.5801C33.6799 16.3574 33.0985 16.2461 32.4058 16.2461C31.6389 16.2461 30.9833 16.3883 30.439 16.6729C29.9071 16.9574 29.4804 17.3532 29.1588 17.8604C28.8371 18.3551 28.6021 18.9365 28.4537 19.6045C28.3052 20.2725 28.231 20.9899 28.231 21.7568ZM56.1046 27.9727V19.0293C56.1046 18.3861 55.9995 17.8356 55.7892 17.3779C55.5789 16.9079 55.2511 16.543 54.8058 16.2832C54.3728 16.0234 53.81 15.8936 53.1173 15.8936C52.5236 15.8936 52.0102 15.9987 51.5773 16.209C51.1443 16.4069 50.8103 16.6976 50.5753 17.0811C50.3403 17.4521 50.2228 17.8913 50.2228 18.3984H44.879C44.879 17.5449 45.0769 16.7347 45.4728 15.9678C45.8686 15.2008 46.4438 14.5267 47.1984 13.9453C47.9529 13.3516 48.8497 12.8877 49.8888 12.5537C50.9402 12.2197 52.1154 12.0527 53.4142 12.0527C54.9728 12.0527 56.3582 12.3125 57.5704 12.832C58.7827 13.3516 59.7351 14.1309 60.4279 15.1699C61.1329 16.209 61.4855 17.5078 61.4855 19.0664V27.6572C61.4855 28.7581 61.5535 29.6611 61.6896 30.3662C61.8256 31.0589 62.0236 31.665 62.2833 32.1846V32.5H56.8839C56.6241 31.9557 56.4262 31.2754 56.2902 30.459C56.1665 29.6302 56.1046 28.8014 56.1046 27.9727ZM56.8097 20.2725L56.8468 23.2969H53.8595C53.1544 23.2969 52.5421 23.3773 52.0226 23.5381C51.503 23.6989 51.0763 23.9277 50.7423 24.2246C50.4083 24.5091 50.1609 24.8431 50.0001 25.2266C49.8517 25.61 49.7775 26.0306 49.7775 26.4883C49.7775 26.946 49.8826 27.3604 50.0929 27.7314C50.3032 28.0902 50.6062 28.3747 51.0021 28.585C51.3979 28.7829 51.8618 28.8818 52.3937 28.8818C53.1977 28.8818 53.8966 28.721 54.4904 28.3994C55.0841 28.0778 55.5418 27.682 55.8634 27.2119C56.1974 26.7419 56.3706 26.2965 56.3829 25.876L57.7931 28.1396C57.5952 28.6468 57.323 29.1725 56.9767 29.7168C56.6427 30.2611 56.2159 30.7744 55.6964 31.2568C55.1769 31.7269 54.5522 32.1165 53.8224 32.4258C53.0926 32.7227 52.2267 32.8711 51.2247 32.8711C49.9506 32.8711 48.7941 32.6175 47.755 32.1104C46.7283 31.5908 45.9119 30.8796 45.3058 29.9766C44.712 29.0612 44.4152 28.0221 44.4152 26.8594C44.4152 25.8079 44.6131 24.874 45.0089 24.0576C45.4047 23.2412 45.9861 22.5547 46.753 21.998C47.5323 21.429 48.5034 21.0023 49.6661 20.7178C50.8289 20.4209 52.1772 20.2725 53.7111 20.2725H56.8097ZM71.1384 16.8027V32.5H65.7946V12.4238H70.8229L71.1384 16.8027ZM77.1872 12.2939L77.0944 17.248C76.8346 17.2109 76.5192 17.18 76.1481 17.1553C75.7894 17.1182 75.4616 17.0996 75.1647 17.0996C74.4102 17.0996 73.7546 17.1986 73.1979 17.3965C72.6537 17.582 72.196 17.8604 71.8249 18.2314C71.4662 18.6025 71.194 19.054 71.0085 19.5859C70.8353 20.1178 70.7363 20.724 70.7116 21.4043L69.6354 21.0703C69.6354 19.7715 69.7653 18.5778 70.0251 17.4893C70.2848 16.3883 70.6621 15.4297 71.1569 14.6133C71.6641 13.7969 72.2826 13.166 73.0124 12.7207C73.7422 12.2754 74.5772 12.0527 75.5173 12.0527C75.8141 12.0527 76.1172 12.0775 76.4264 12.127C76.7357 12.1641 76.9893 12.2197 77.1872 12.2939ZM118.647 12.4238V32.5H113.285V12.4238H118.647ZM112.951 7.19141C112.951 6.41211 113.223 5.76888 113.767 5.26172C114.312 4.75456 115.041 4.50098 115.957 4.50098C116.86 4.50098 117.583 4.75456 118.128 5.26172C118.684 5.76888 118.963 6.41211 118.963 7.19141C118.963 7.9707 118.684 8.61393 118.128 9.12109C117.583 9.62826 116.86 9.88184 115.957 9.88184C115.041 9.88184 114.312 9.62826 113.767 9.12109C113.223 8.61393 112.951 7.9707 112.951 7.19141ZM128.486 16.71V32.5H123.142V12.4238H128.152L128.486 16.71ZM127.706 21.7568H126.259C126.259 20.2725 126.451 18.9365 126.834 17.749C127.218 16.5492 127.756 15.5286 128.449 14.6875C129.141 13.834 129.964 13.1846 130.916 12.7393C131.881 12.2816 132.957 12.0527 134.145 12.0527C135.085 12.0527 135.945 12.1888 136.724 12.4609C137.503 12.7331 138.171 13.166 138.728 13.7598C139.297 14.3535 139.73 15.139 140.027 16.1162C140.336 17.0934 140.491 18.2871 140.491 19.6973V32.5H135.11V19.6787C135.11 18.7881 134.986 18.0954 134.739 17.6006C134.491 17.1058 134.126 16.7594 133.644 16.5615C133.174 16.3512 132.592 16.2461 131.9 16.2461C131.182 16.2461 130.558 16.3883 130.026 16.6729C129.506 16.9574 129.073 17.3532 128.727 17.8604C128.393 18.3551 128.139 18.9365 127.966 19.6045C127.793 20.2725 127.706 20.9899 127.706 21.7568ZM157.454 12.4238H162.297V31.832C162.297 33.6628 161.889 35.2152 161.072 36.4893C160.268 37.7757 159.143 38.7467 157.695 39.4023C156.248 40.0703 154.566 40.4043 152.648 40.4043C151.807 40.4043 150.917 40.293 149.976 40.0703C149.049 39.8477 148.158 39.5013 147.305 39.0312C146.463 38.5612 145.758 37.9674 145.189 37.25L147.546 34.0957C148.164 34.8132 148.882 35.3698 149.698 35.7656C150.515 36.1738 151.418 36.3779 152.407 36.3779C153.372 36.3779 154.188 36.1986 154.856 35.8398C155.524 35.4935 156.038 34.9801 156.396 34.2998C156.755 33.6318 156.934 32.8216 156.934 31.8691V17.0625L157.454 12.4238ZM143.946 22.7031V22.3135C143.946 20.7796 144.132 19.388 144.503 18.1387C144.886 16.877 145.424 15.7946 146.117 14.8916C146.822 13.9886 147.676 13.2897 148.678 12.7949C149.68 12.3001 150.811 12.0527 152.073 12.0527C153.409 12.0527 154.529 12.3001 155.432 12.7949C156.335 13.2897 157.077 13.9948 157.658 14.9102C158.24 15.8132 158.691 16.8831 159.013 18.1201C159.347 19.3447 159.606 20.6868 159.792 22.1465V23C159.606 24.3978 159.328 25.6966 158.957 26.8965C158.586 28.0964 158.097 29.1478 157.491 30.0508C156.885 30.9414 156.13 31.6341 155.227 32.1289C154.337 32.6237 153.273 32.8711 152.036 32.8711C150.799 32.8711 149.68 32.6175 148.678 32.1104C147.688 31.6032 146.841 30.8919 146.136 29.9766C145.431 29.0612 144.886 27.985 144.503 26.748C144.132 25.5111 143.946 24.1628 143.946 22.7031ZM149.29 22.3135V22.7031C149.29 23.5319 149.37 24.305 149.531 25.0225C149.692 25.7399 149.939 26.377 150.273 26.9336C150.62 27.4779 151.046 27.9046 151.554 28.2139C152.073 28.5107 152.685 28.6592 153.391 28.6592C154.368 28.6592 155.166 28.4551 155.784 28.0469C156.403 27.6263 156.866 27.0511 157.176 26.3213C157.485 25.5915 157.664 24.7503 157.714 23.7979V21.3672C157.689 20.5879 157.584 19.889 157.398 19.2705C157.213 18.6396 156.953 18.1016 156.619 17.6562C156.285 17.2109 155.852 16.8646 155.32 16.6172C154.788 16.3698 154.157 16.2461 153.428 16.2461C152.723 16.2461 152.11 16.4069 151.591 16.7285C151.084 17.0378 150.657 17.4645 150.31 18.0088C149.976 18.5531 149.723 19.1963 149.55 19.9385C149.377 20.6683 149.29 21.46 149.29 22.3135ZM165.79 22.666V22.2764C165.79 20.8044 166 19.4499 166.42 18.2129C166.841 16.9635 167.453 15.8812 168.257 14.9658C169.061 14.0505 170.051 13.3392 171.226 12.832C172.401 12.3125 173.749 12.0527 175.271 12.0527C176.792 12.0527 178.147 12.3125 179.334 12.832C180.522 13.3392 181.518 14.0505 182.322 14.9658C183.138 15.8812 183.757 16.9635 184.177 18.2129C184.598 19.4499 184.808 20.8044 184.808 22.2764V22.666C184.808 24.1257 184.598 25.4801 184.177 26.7295C183.757 27.9665 183.138 29.0488 182.322 29.9766C181.518 30.8919 180.528 31.6032 179.353 32.1104C178.178 32.6175 176.83 32.8711 175.308 32.8711C173.787 32.8711 172.432 32.6175 171.245 32.1104C170.069 31.6032 169.074 30.8919 168.257 29.9766C167.453 29.0488 166.841 27.9665 166.42 26.7295C166 25.4801 165.79 24.1257 165.79 22.666ZM171.133 22.2764V22.666C171.133 23.5072 171.208 24.2926 171.356 25.0225C171.504 25.7523 171.739 26.3955 172.061 26.9521C172.395 27.4964 172.828 27.9232 173.36 28.2324C173.892 28.5417 174.541 28.6963 175.308 28.6963C176.05 28.6963 176.687 28.5417 177.219 28.2324C177.751 27.9232 178.178 27.4964 178.499 26.9521C178.821 26.3955 179.056 25.7523 179.205 25.0225C179.365 24.2926 179.446 23.5072 179.446 22.666V22.2764C179.446 21.46 179.365 20.693 179.205 19.9756C179.056 19.2458 178.815 18.6025 178.481 18.0459C178.159 17.4769 177.733 17.0316 177.201 16.71C176.669 16.3883 176.026 16.2275 175.271 16.2275C174.516 16.2275 173.873 16.3883 173.341 16.71C172.822 17.0316 172.395 17.4769 172.061 18.0459C171.739 18.6025 171.504 19.2458 171.356 19.9756C171.208 20.693 171.133 21.46 171.133 22.2764Z" fill="#264653"/>
<path d="M85.2444 16.5801V32.5H79.8821V12.4238H84.9104L85.2444 16.5801ZM84.5022 21.7568H83.0178C83.0178 20.359 83.1848 19.0726 83.5188 17.8975C83.8651 16.71 84.3661 15.6833 85.0217 14.8174C85.6897 13.9391 86.5123 13.2588 87.4895 12.7764C88.4667 12.2939 89.5985 12.0527 90.885 12.0527C91.7756 12.0527 92.592 12.1888 93.3342 12.4609C94.0764 12.7207 94.7135 13.1351 95.2454 13.7041C95.7896 14.2607 96.2102 14.9906 96.5071 15.8936C96.8039 16.7842 96.9524 17.8542 96.9524 19.1035V32.5H91.6086V19.6973C91.6086 18.7819 91.4849 18.0768 91.2375 17.582C90.9901 17.0872 90.6376 16.7409 90.1799 16.543C89.7346 16.3451 89.1965 16.2461 88.5657 16.2461C87.873 16.2461 87.2668 16.3883 86.7473 16.6729C86.2401 16.9574 85.8196 17.3532 85.4856 17.8604C85.1516 18.3551 84.9042 18.9365 84.7434 19.6045C84.5826 20.2725 84.5022 20.9899 84.5022 21.7568ZM96.4514 21.1445L94.5403 21.3857C94.5403 20.0745 94.7011 18.8561 95.0227 17.7305C95.3567 16.6048 95.8453 15.6152 96.4885 14.7617C97.1441 13.9082 97.9543 13.2464 98.9192 12.7764C99.884 12.2939 100.997 12.0527 102.259 12.0527C103.224 12.0527 104.102 12.195 104.894 12.4795C105.685 12.7516 106.36 13.1908 106.916 13.7969C107.485 14.3906 107.918 15.1699 108.215 16.1348C108.524 17.0996 108.679 18.2809 108.679 19.6787V32.5H103.317V19.6787C103.317 18.751 103.193 18.0459 102.946 17.5635C102.711 17.0687 102.364 16.7285 101.906 16.543C101.461 16.3451 100.929 16.2461 100.311 16.2461C99.6676 16.2461 99.1047 16.376 98.6223 16.6357C98.1399 16.8831 97.7379 17.2295 97.4163 17.6748C97.0946 18.1201 96.8534 18.6396 96.6926 19.2334C96.5318 19.8148 96.4514 20.4518 96.4514 21.1445Z" fill="#2A9D8F"/>
<line x1="9" y1="37.5" x2="34" y2="37.5" stroke="#264653" stroke-width="3"/>
<line x1="159" y1="6.5" x2="184" y2="6.5" stroke="#E76F51" stroke-width="3"/>
</svg>
