<svg width="46" height="44" viewBox="0 0 46 44" fill="none" xmlns="http://www.w3.org/2000/svg">
<path d="M38.8805 35.1002L40.9705 33.0103C41.0758 32.9342 41.1671 32.8353 41.2344 32.7143C44.0507 27.6592 44.7486 21.7799 43.1998 16.1596C41.6491 10.5331 38.0303 5.83833 33.0096 2.93961C27.9376 0.0113194 22.0079 -0.760676 16.3126 0.765179C10.617 2.29121 5.86793 5.92488 2.93973 10.9969C0.0113541 16.0688 -0.760727 21.9987 0.765214 27.694C2.29133 33.3894 5.925 38.1386 10.9968 41.0668C11.702 41.474 12.4283 41.8401 13.1713 42.1647H12.8314C12.3248 42.1647 11.9141 42.5754 11.9141 43.082C11.9141 43.5885 12.3248 43.9992 12.8314 43.9992L21.9304 43.9993C21.9341 43.9993 21.9377 43.9994 21.9413 43.9994C21.9431 43.9994 21.9446 43.9994 21.9463 43.9994C21.9501 43.9994 21.9536 43.9993 21.9574 43.9993L31.1754 43.9994C31.682 43.9994 32.0926 43.5886 32.0926 43.0821C32.0926 42.5757 31.682 42.1649 31.1754 42.1649H30.7796C31.394 41.8989 31.997 41.605 32.5862 41.2837C32.703 41.2384 32.8113 41.1699 32.9028 41.0784L35.1005 38.8806L39.9511 43.7313C40.1231 43.9033 40.3564 44 40.5996 44C40.8429 44 41.0761 43.9033 41.2483 43.7313L43.7312 41.2483C44.0894 40.8902 44.0894 40.3094 43.7312 39.9511L38.8805 35.1002ZM11.9139 39.4782C7.26641 36.795 3.93631 32.4414 2.53714 27.2193C1.13798 21.9971 1.84508 16.5617 4.52841 11.9142C7.21157 7.26654 11.5652 3.93636 16.7873 2.53728C22.0091 1.13794 27.4448 1.84504 32.0924 4.52846C41.3716 9.88567 44.8097 21.7117 39.9716 31.182L29.4992 28.3759C29.1821 28.2909 28.8448 28.3817 28.6132 28.6133C28.3814 28.845 28.2908 29.1828 28.3758 29.4993L31.1767 39.9527C25.1051 43.0326 17.783 42.8667 11.9139 39.4782ZM40.5995 41.7854L35.7491 36.9347C35.5771 36.7627 35.3437 36.666 35.1004 36.666C34.8572 36.666 34.6239 36.7627 34.4519 36.9347L32.729 38.6577L30.5589 30.5588L38.6577 32.7289L36.9348 34.4517C36.7628 34.6236 36.6662 34.857 36.6662 35.1002C36.6662 35.3435 36.7628 35.5767 36.9348 35.7488L41.7855 40.5995L40.5995 41.7854Z" fill="black"/>
<path d="M10.2721 26.5437H11.7226C12.9945 26.5437 13.8829 26.4436 14.3883 26.2431C15.2679 25.8948 15.708 25.1022 15.708 23.865C15.708 23.2464 15.5709 22.7652 15.2965 22.4211C15.0221 22.077 14.6105 21.8396 14.0616 21.7091C14.532 21.5523 14.8762 21.3038 15.094 20.9643C15.3117 20.6245 15.4206 20.1713 15.4206 19.6053C15.4206 18.9345 15.242 18.4183 14.8849 18.0567C14.5276 17.6953 13.9746 17.4753 13.2254 17.397C12.7724 17.3447 12.2977 17.3186 11.8011 17.3186H10.2723C9.35747 17.3186 8.90039 17.7979 8.90039 18.756V25.1587C8.90039 25.6465 9.01135 25.9993 9.23353 26.2171C9.45545 26.4347 9.80174 26.5437 10.2721 26.5437ZM10.7033 19.2391C10.7033 18.9256 10.834 18.7689 11.0954 18.7689H11.9969C12.3802 18.7689 12.6678 18.795 12.8593 18.8473C13.1032 18.9256 13.2883 19.0409 13.4147 19.1935C13.5409 19.3457 13.6041 19.592 13.6041 19.9318C13.6041 20.4457 13.4082 20.7854 13.0162 20.951C12.8333 21.0293 12.4631 21.0686 11.9055 21.0686H10.7034L10.7033 19.2391ZM10.7033 22.5059H11.9838C12.5675 22.5059 12.9727 22.5496 13.1991 22.6366C13.6433 22.8197 13.8656 23.1725 13.8656 23.695C13.8656 24.3397 13.6565 24.7449 13.2382 24.9104C13.0207 24.9976 12.6635 25.0411 12.1668 25.0411H11.2C11.0171 25.0411 10.8885 25.0019 10.8145 24.9236C10.7406 24.8453 10.7034 24.7189 10.7034 24.5446L10.7033 22.5059Z" fill="black"/>
<path d="M30.267 26.1654C30.267 26.4267 30.3845 26.5574 30.6199 26.5574H31.7175C31.822 26.5574 31.909 26.5225 31.9787 26.4529C32.0486 26.383 32.0834 26.2873 32.0834 26.1652V22.6633L34.9582 17.9854C35.0629 17.8026 35.1149 17.6631 35.1149 17.5675C35.1148 17.4628 35.0627 17.3888 34.958 17.3452C34.8273 17.3017 34.3874 17.2799 33.6382 17.2799C33.4292 17.2799 33.2505 17.4106 33.1024 17.6719C32.1879 19.1789 31.565 20.2504 31.234 20.8864C30.8333 20.1109 30.2147 19.0307 29.3785 17.6455C29.2391 17.4017 29.0648 17.2798 28.8559 17.2798C27.9762 17.2798 27.4884 17.2971 27.3926 17.332C27.2792 17.3842 27.2227 17.467 27.2227 17.5803C27.2227 17.6761 27.2792 17.8197 27.3926 18.0115L30.2671 22.7156V26.1654H30.267Z" fill="black"/>
<path d="M25.0484 17.3059H23.9902C23.755 17.3059 23.6372 17.4277 23.6372 17.6718V23.3035C23.6372 23.9743 23.5414 24.4446 23.3499 24.7147C23.1234 25.0456 22.6095 25.2112 21.8081 25.2112C21.0676 25.2112 20.5753 25.0372 20.3314 24.6885C20.1484 24.4358 20.0571 23.9656 20.0571 23.2774V17.6718C20.0571 17.4277 19.957 17.3059 19.7566 17.3059H18.6066C18.3714 17.3059 18.2539 17.4277 18.2539 17.6718V22.8854C18.2539 24.1224 18.3497 24.9498 18.5413 25.368C18.9595 26.274 20.0135 26.7271 21.7036 26.7271C23.3674 26.7271 24.4562 26.3048 24.9701 25.4597C25.127 25.1896 25.2314 24.863 25.2838 24.4796C25.336 24.0962 25.362 23.5563 25.362 22.8593V17.6718C25.3621 17.4278 25.2576 17.3059 25.0484 17.3059Z" fill="black"/>
<path d="M17.7255 37.9505C12.0463 36.4286 7.57312 31.9555 6.05139 26.2766C5.92023 25.7873 5.41725 25.4967 4.92812 25.628C4.43881 25.7591 4.14839 26.262 4.27955 26.7513C5.97034 33.0612 10.9406 38.0313 17.2507 39.7224C17.3302 39.7438 17.4102 39.754 17.4887 39.754C17.8936 39.754 18.2643 39.4837 18.3741 39.074C18.5052 38.5846 18.2147 38.0817 17.7255 37.9505Z" fill="black"/>
<path d="M37.9519 17.7301C38.0617 18.14 38.4324 18.4102 38.8374 18.4102C38.9157 18.4102 38.9958 18.4 39.0753 18.3786C39.5645 18.2475 39.8549 17.7446 39.7237 17.2553C38.033 10.9452 33.0626 5.97506 26.7525 4.28418C26.2633 4.15302 25.7603 4.44353 25.6291 4.93266C25.498 5.42206 25.7885 5.92503 26.2779 6.05619C31.9568 7.57784 36.4302 12.0511 37.9519 17.7301Z" fill="black"/>
<path d="M21.4542 38.5041C21.2217 38.4961 20.9906 38.4837 20.7671 38.467C20.2617 38.4288 19.8217 38.808 19.7839 39.313C19.746 39.8182 20.1248 40.2584 20.6299 40.2963C20.8781 40.3149 21.1344 40.3288 21.3916 40.3375C21.4024 40.3379 21.4129 40.338 21.4235 40.338C21.9156 40.338 22.3225 39.9477 22.3396 39.452C22.3569 38.9459 21.9605 38.5215 21.4542 38.5041Z" fill="black"/>
<path d="M22.5495 5.50314C22.7836 5.51122 23.0149 5.52385 23.237 5.54044C23.2604 5.54216 23.2836 5.54302 23.3067 5.54302C23.782 5.54302 24.1841 5.1761 24.2203 4.69444C24.2581 4.18923 23.8794 3.74909 23.3742 3.7111C23.1277 3.69262 22.8716 3.67861 22.6131 3.66975C22.1047 3.65214 21.6821 4.04845 21.6646 4.55469C21.6469 5.06093 22.0432 5.48552 22.5495 5.50314Z" fill="black"/>
<circle cx="38.1836" cy="8.80688" r="7" fill="#E76F51" fill-opacity="0.3"/>
</svg>
