<svg width="30" height="42" viewBox="0 0 30 42" fill="none" xmlns="http://www.w3.org/2000/svg">
<path d="M27.1791 2.86567H22.0089C21.7279 2.03373 20.9405 1.43284 20.0149 1.43284H17.8284C17.1648 0.540448 16.1137 0 15 0C13.8864 0 12.8352 0.540448 12.1715 1.43284H9.98507C9.05946 1.43284 8.27212 2.03373 7.9911 2.86567H2.8209C1.26546 2.86567 0 4.13113 0 5.68657V38.6418C0 40.1972 1.26546 41.4627 2.8209 41.4627H27.1791C28.7345 41.4627 30 40.1972 30 38.6418V5.68657C30 4.13113 28.7345 2.86567 27.1791 2.86567ZM9.98507 7.79105H20.0149C20.6439 7.79105 21.2088 7.51334 21.5947 7.07463H25.791V37.2537H4.20896V7.07463H8.40528C8.79116 7.51334 9.35615 7.79105 9.98507 7.79105ZM9.98507 2.77612H12.5318C12.7709 2.77612 12.992 2.64904 13.1122 2.44236C13.5128 1.75415 14.2185 1.34328 15 1.34328C15.7816 1.34328 16.4872 1.75415 16.8877 2.44227C17.0079 2.64896 17.2291 2.77612 17.4681 2.77612H20.0149C20.4347 2.77612 20.7761 3.11758 20.7761 3.53731V5.68657C20.7761 6.1063 20.4347 6.44776 20.0149 6.44776H9.98507C9.56534 6.44776 9.22388 6.1063 9.22388 5.68657V3.53731C9.22388 3.11758 9.56534 2.77612 9.98507 2.77612ZM28.6567 38.6418C28.6567 39.4565 27.9939 40.1194 27.1791 40.1194H2.8209C2.00615 40.1194 1.34328 39.4565 1.34328 38.6418V5.68657C1.34328 4.87182 2.00615 4.20896 2.8209 4.20896H7.8806V5.68657C7.8806 5.70161 7.8814 5.71639 7.88176 5.73134H3.53731C3.1663 5.73134 2.86567 6.03206 2.86567 6.40299V37.9254C2.86567 38.2963 3.1663 38.597 3.53731 38.597H26.4627C26.8337 38.597 27.1343 38.2963 27.1343 37.9254V6.40299C27.1343 6.03206 26.8337 5.73134 26.4627 5.73134H22.1182C22.1186 5.71639 22.1194 5.70161 22.1194 5.68657V4.20896H27.1791C27.9939 4.20896 28.6567 4.87182 28.6567 5.68657V38.6418Z" fill="#E76F51"/>
<path d="M14.9998 4.20895C15.177 4.20895 15.3499 4.1373 15.4744 4.01193C15.5998 3.88745 15.6714 3.71372 15.6714 3.5373C15.6714 3.36089 15.5998 3.18715 15.4744 3.06268C15.3499 2.9373 15.1771 2.86566 14.9998 2.86566C14.8225 2.86566 14.6496 2.9373 14.5251 3.06268C14.3998 3.18715 14.3281 3.35999 14.3281 3.5373C14.3281 3.71462 14.3998 3.88745 14.5251 4.01193C14.6496 4.1373 14.8225 4.20895 14.9998 4.20895Z" fill="#E76F51"/>
<path d="M10.7019 14.2388H22.881C23.252 14.2388 23.5527 13.9381 23.5527 13.5671C23.5527 13.1962 23.252 12.8955 22.881 12.8955H10.7019C10.3309 12.8955 10.0303 13.1962 10.0303 13.5671C10.0303 13.9381 10.3309 14.2388 10.7019 14.2388Z" fill="#E76F51"/>
<path d="M10.7019 21.403H22.881C23.252 21.403 23.5527 21.1023 23.5527 20.7313C23.5527 20.3604 23.252 20.0597 22.881 20.0597H10.7019C10.3309 20.0597 10.0303 20.3604 10.0303 20.7313C10.0303 21.1023 10.3309 21.403 10.7019 21.403Z" fill="#E76F51"/>
<path d="M10.7019 28.5672H12.8512C13.2222 28.5672 13.5228 28.2664 13.5228 27.8955C13.5228 27.5246 13.2222 27.2239 12.8512 27.2239H10.7019C10.3309 27.2239 10.0303 27.5246 10.0303 27.8955C10.0303 28.2664 10.3309 28.5672 10.7019 28.5672Z" fill="#E76F51"/>
<path d="M10.7019 17.8209H22.881C23.252 17.8209 23.5527 17.5202 23.5527 17.1492C23.5527 16.7783 23.252 16.4776 22.881 16.4776H10.7019C10.3309 16.4776 10.0303 16.7783 10.0303 17.1492C10.0303 17.5202 10.3309 17.8209 10.7019 17.8209Z" fill="#E76F51"/>
<path d="M10.7019 24.9851H13.5676C13.9386 24.9851 14.2392 24.6844 14.2392 24.3134C14.2392 23.9425 13.9386 23.6418 13.5676 23.6418H10.7019C10.3309 23.6418 10.0303 23.9425 10.0303 24.3134C10.0303 24.6844 10.3309 24.9851 10.7019 24.9851Z" fill="#E76F51"/>
<path d="M10.7019 32.1493H13.5676C13.9386 32.1493 14.2392 31.8485 14.2392 31.4776C14.2392 31.1067 13.9386 30.806 13.5676 30.806H10.7019C10.3309 30.806 10.0303 31.1067 10.0303 31.4776C10.0303 31.8485 10.3309 32.1493 10.7019 32.1493Z" fill="#E76F51"/>
<path d="M7.11988 14.2388H7.8363C8.20732 14.2388 8.50794 13.9381 8.50794 13.5671C8.50794 13.1962 8.20732 12.8955 7.8363 12.8955H7.11988C6.74887 12.8955 6.44824 13.1962 6.44824 13.5671C6.44824 13.9381 6.74887 14.2388 7.11988 14.2388Z" fill="#E76F51"/>
<path d="M7.11988 21.403H7.8363C8.20732 21.403 8.50794 21.1023 8.50794 20.7313C8.50794 20.3604 8.20732 20.0597 7.8363 20.0597H7.11988C6.74887 20.0597 6.44824 20.3604 6.44824 20.7313C6.44824 21.1023 6.74887 21.403 7.11988 21.403Z" fill="#E76F51"/>
<path d="M7.11988 28.5672H7.8363C8.20732 28.5672 8.50794 28.2664 8.50794 27.8955C8.50794 27.5246 8.20732 27.2239 7.8363 27.2239H7.11988C6.74887 27.2239 6.44824 27.5246 6.44824 27.8955C6.44824 28.2664 6.74887 28.5672 7.11988 28.5672Z" fill="#E76F51"/>
<path d="M7.11988 17.8209H7.8363C8.20732 17.8209 8.50794 17.5202 8.50794 17.1492C8.50794 16.7783 8.20732 16.4776 7.8363 16.4776H7.11988C6.74887 16.4776 6.44824 16.7783 6.44824 17.1492C6.44824 17.5202 6.74887 17.8209 7.11988 17.8209Z" fill="#E76F51"/>
<path d="M7.11988 24.9851H7.8363C8.20732 24.9851 8.50794 24.6844 8.50794 24.3134C8.50794 23.9425 8.20732 23.6418 7.8363 23.6418H7.11988C6.74887 23.6418 6.44824 23.9425 6.44824 24.3134C6.44824 24.6844 6.74887 24.9851 7.11988 24.9851Z" fill="#E76F51"/>
<path d="M7.11988 32.1493H7.8363C8.20732 32.1493 8.50794 31.8485 8.50794 31.4776C8.50794 31.1067 8.20732 30.806 7.8363 30.806H7.11988C6.74887 30.806 6.44824 31.1067 6.44824 31.4776C6.44824 31.8485 6.74887 32.1493 7.11988 32.1493Z" fill="#E76F51"/>
<path d="M19.2987 23.6418C16.9532 23.6418 15.0449 25.5501 15.0449 27.8955C15.0449 30.241 16.9532 32.1492 19.2987 32.1492C20.2464 32.1492 21.1226 31.8374 21.8305 31.3113C21.8371 31.3067 21.8444 31.3034 21.8509 31.2985C21.8688 31.2851 21.8857 31.2708 21.9019 31.2561C22.905 30.4772 23.5524 29.2609 23.5524 27.8955C23.5524 25.5501 21.6441 23.6418 19.2987 23.6418ZM18.627 25.0641V27.2239H16.4673C16.7203 26.1577 17.5608 25.3171 18.627 25.0641ZM16.4673 28.5672H18.9628L20.4601 30.5635C20.104 30.719 19.7114 30.806 19.2987 30.806C17.925 30.806 16.7714 29.8491 16.4673 28.5672ZM21.5341 29.7568L19.9703 27.6716V25.0641C21.2522 25.3683 22.2091 26.5219 22.2091 27.8955C22.2091 28.6028 21.9552 29.2519 21.5341 29.7568Z" fill="#E76F51"/>
</svg>
