<svg width="32" height="52" viewBox="0 0 32 52" fill="none" xmlns="http://www.w3.org/2000/svg">
<path fill-rule="evenodd" clip-rule="evenodd" d="M13.639 1.00024C8.47141 1.00024 4.2687 5.36686 4.2687 10.7365C4.2687 14.8141 6.69542 18.3081 10.1249 19.7557L10.1201 18.352C7.38938 16.99 5.50397 14.0998 5.50397 10.7363C5.50397 6.06032 9.13884 2.28336 13.6392 2.28336C18.1395 2.28336 21.7743 6.06021 21.7743 10.7363C21.7743 14.1167 19.8697 17.0189 17.1168 18.3721V19.7697C20.5655 18.3315 23.0096 14.8285 23.0096 10.7362C23.0096 5.36676 18.8067 1.00024 13.639 1.00024ZM13.6303 10.2442C12.0142 10.2442 10.6558 11.5497 10.6603 13.1948L10.7086 30.3102L5.51928 25.186C5.00642 24.6797 4.34344 24.4223 3.68885 24.423C3.03431 24.4237 2.38846 24.6823 1.90861 25.207L1.63072 25.5108C1.14933 26.0372 0.955879 26.7328 1.00834 27.3856C1.06084 28.0385 1.3306 28.6587 1.73491 29.1913L10.3948 40.599C10.3989 40.6046 10.4278 40.6449 10.4671 40.7053C10.5091 40.7697 10.5551 40.8691 10.5385 40.8226C10.5313 40.8022 10.5646 40.9494 10.5771 41.0612C10.5883 41.1613 10.5926 41.2255 10.5935 41.2416V43.2017H9.151C8.66093 43.2017 8.27716 43.5312 8.05777 43.8995C7.83835 44.2678 7.73067 44.711 7.73067 45.1909V49.0107C7.73067 49.4906 7.83835 49.9338 8.05777 50.3021C8.27718 50.6704 8.66093 50.9999 9.151 50.9999H29.2382C29.7283 50.9999 30.1121 50.6704 30.3315 50.3021C30.5509 49.9338 30.6586 49.4906 30.6586 49.0107V45.1909C30.6586 44.711 30.5509 44.2678 30.3315 43.8995C30.1121 43.5313 29.7283 43.2017 29.2382 43.2017H27.8874C27.8659 42.6769 27.8178 41.3248 27.9346 40.6561C28.0208 40.1634 28.087 40.0941 28.2714 39.7157C28.4558 39.3373 28.7092 38.7522 29.0259 37.5341C29.3938 36.1193 29.439 33.2729 29.4447 30.6355C29.4503 27.9978 29.3781 25.6616 29.3781 25.6616C29.4723 24.0209 28.1249 22.718 26.6108 22.718C25.9143 22.718 25.2818 22.9965 24.7967 23.4499C24.3541 22.4599 23.4299 21.7615 22.3401 21.7615C21.6526 21.7615 21.0309 22.0401 20.5541 22.4934C20.1099 21.5091 19.1893 20.816 18.1032 20.816C17.5449 20.816 17.0304 20.9999 16.6009 21.3113V13.1936C16.6009 11.5506 15.2464 10.2442 13.6303 10.2442ZM13.6303 11.5276C14.6208 11.5276 15.3661 12.2796 15.3661 13.1928V27.1559C15.3651 27.2408 15.3803 27.3251 15.4109 27.4039C15.4415 27.4827 15.4868 27.5544 15.5442 27.6149C15.6017 27.6753 15.6701 27.7233 15.7455 27.7561C15.821 27.7888 15.9019 27.8057 15.9837 27.8057C16.0654 27.8057 16.1464 27.7888 16.2218 27.7561C16.2973 27.7233 16.3657 27.6753 16.4231 27.6149C16.4806 27.5544 16.5259 27.4827 16.5565 27.4039C16.587 27.3251 16.6022 27.2408 16.6012 27.1559V23.8152C16.6012 22.8301 17.2842 22.0988 18.1036 22.0988C18.923 22.0988 19.605 22.8301 19.605 23.8152V24.6504C19.6049 24.6685 19.6055 24.6865 19.6069 24.7046C19.6065 24.7238 19.604 24.7424 19.604 24.7617V28.0863C19.6029 28.1713 19.6181 28.2556 19.6487 28.3344C19.6793 28.4132 19.7246 28.4849 19.7821 28.5453C19.8395 28.6058 19.9079 28.6538 19.9834 28.6865C20.0588 28.7193 20.1397 28.7361 20.2215 28.7361C20.3033 28.7361 20.3842 28.7193 20.4597 28.6865C20.5351 28.6538 20.6035 28.6058 20.661 28.5453C20.7184 28.4849 20.7637 28.4132 20.7943 28.3344C20.8249 28.2556 20.8401 28.1713 20.839 28.0863V24.7617C20.839 23.7766 21.521 23.0443 22.3404 23.0443C23.1598 23.0443 23.8428 23.7766 23.8428 24.7617V25.635C23.8429 25.6443 23.8433 25.6537 23.8438 25.663C23.8437 25.6691 23.8428 25.675 23.8428 25.6811V28.9536C23.8418 29.0385 23.857 29.1228 23.8875 29.2016C23.9181 29.2804 23.9634 29.3521 24.0209 29.4126C24.0783 29.473 24.1467 29.521 24.2222 29.5538C24.2976 29.5865 24.3786 29.6034 24.4603 29.6034C24.5421 29.6034 24.623 29.5865 24.6985 29.5538C24.7739 29.521 24.8423 29.473 24.8998 29.4126C24.9572 29.3521 25.0025 29.2804 25.0331 29.2016C25.0637 29.1228 25.0789 29.0385 25.0779 28.9536V25.6811C25.0779 24.7263 25.7641 24.0008 26.6111 24.0008C27.4561 24.0008 28.2209 24.7412 28.1462 25.625C28.1441 25.6503 28.1435 25.6758 28.1443 25.7012C28.1443 25.7012 28.2155 28.0212 28.2099 30.6329C28.2043 33.2447 28.0838 36.2405 27.8346 37.1989C27.5341 38.3542 27.3336 38.7986 27.1698 39.1349C27.0059 39.4712 26.8291 39.8025 26.7201 40.4262C26.5694 41.2886 26.605 42.5281 26.6391 43.2014H11.8291V41.2263C11.8291 41.2139 11.8287 41.2015 11.8281 41.1892C11.8281 41.1892 11.8219 41.0654 11.8049 40.9134C11.7879 40.7615 11.7747 40.5946 11.6968 40.376C11.6281 40.1832 11.5551 40.0839 11.4913 39.986C11.4276 39.8881 11.3707 39.8116 11.3707 39.8116C11.3688 39.8092 11.3669 39.8069 11.3649 39.8046L2.70507 28.3969C2.42789 28.0318 2.2669 27.6246 2.23903 27.278C2.21116 26.9314 2.28791 26.6547 2.5256 26.3947L2.80446 26.0909C3.2829 25.5677 4.09891 25.5535 4.66863 26.116L10.2111 31.587C10.2398 31.638 10.2674 31.6901 10.3134 31.7495C10.4391 31.9117 10.7049 32.1616 11.0998 32.1415C11.3084 32.1309 11.4917 32.0146 11.5919 31.9079C11.6922 31.8012 11.7403 31.7029 11.7772 31.6161C11.8509 31.4424 11.8771 31.2948 11.8988 31.1559C11.942 30.8781 11.9441 30.6286 11.9441 30.6286C11.9445 30.6239 11.9448 30.6192 11.9451 30.6145L11.8959 13.1907C11.8934 12.2797 12.6397 11.5276 13.6303 11.5276ZM9.1512 44.4847H29.2384C29.1931 44.4847 29.2111 44.4561 29.2819 44.5749C29.3526 44.6938 29.4237 44.9239 29.4237 45.1905V49.0104C29.4237 49.2771 29.3526 49.5072 29.2819 49.626C29.2111 49.7448 29.1931 49.7162 29.2384 49.7162H9.1512C9.19652 49.7162 9.17954 49.7448 9.10875 49.626C9.03795 49.5072 8.96594 49.2771 8.96594 49.0104V45.1905C8.96594 44.9239 9.03795 44.6938 9.10875 44.5749C9.17954 44.4561 9.19652 44.4847 9.1512 44.4847Z" fill="black" stroke="black"/>
</svg>
