<svg width="34" height="32" viewBox="0 0 34 32" fill="none" xmlns="http://www.w3.org/2000/svg">
<path d="M25.8397 12.1823C25.2354 12.4346 24.5862 12.6051 23.9037 12.6821C24.6079 12.2851 25.1348 11.6604 25.3859 10.9244C24.7243 11.2946 24.0002 11.5552 23.2451 11.6948C22.7373 11.184 22.0647 10.8455 21.3317 10.7317C20.5988 10.618 19.8464 10.7353 19.1915 11.0657C18.5366 11.396 18.0158 11.9208 17.71 12.5585C17.4041 13.1962 17.3303 13.9113 17.5 14.5926C16.1593 14.5292 14.8479 14.2009 13.6506 13.6291C12.4534 13.0573 11.3972 12.2547 10.5505 11.2735C10.261 11.7439 10.0945 12.2894 10.0945 12.8703C10.0942 13.3933 10.2309 13.9082 10.4925 14.3695C10.7541 14.8307 11.1325 15.224 11.5941 15.5144C11.0588 15.4984 10.5352 15.3621 10.067 15.1169V15.1578C10.067 15.8913 10.3363 16.6022 10.8293 17.1699C11.3223 17.7376 12.0085 18.1272 12.7717 18.2724C12.275 18.3991 11.7543 18.4177 11.2489 18.327C11.4642 18.9581 11.8836 19.51 12.4484 19.9054C13.0132 20.3008 13.6951 20.5199 14.3987 20.532C13.2044 21.4153 11.7294 21.8944 10.2111 21.8923C9.9421 21.8923 9.67337 21.8775 9.40625 21.8479C10.9475 22.7815 12.7415 23.2769 14.5738 23.275C20.7764 23.275 24.1671 18.4354 24.1671 14.238C24.1671 14.1017 24.1635 13.964 24.157 13.8276C24.8166 13.3782 25.3859 12.8218 25.8383 12.1844L25.8397 12.1823Z" fill="white"/>
<path d="M32.6301 16.2069C32.6301 24.3663 25.5999 31.0309 16.8639 31.0309C8.12792 31.0309 1.09766 24.3663 1.09766 16.2069C1.09766 8.04746 8.12792 1.38281 16.8639 1.38281C25.5999 1.38281 32.6301 8.04746 32.6301 16.2069Z" stroke="white"/>
</svg>
