<svg width="23" height="23" viewBox="0 0 23 23" fill="none" xmlns="http://www.w3.org/2000/svg">
<path d="M11.7719 0.587891C5.71601 0.587891 0.789062 5.52239 0.789062 11.5878C0.789062 17.6533 5.71601 22.5879 11.7719 22.5879C17.8278 22.5879 22.7548 17.6533 22.7548 11.5878C22.7548 5.52239 17.828 0.587891 11.7719 0.587891ZM18.0785 9.72985L11.1785 16.6406C10.8851 16.9344 10.4951 17.0961 10.0803 17.0961C9.66539 17.0961 9.27539 16.9344 8.982 16.6406L5.46537 13.1185C5.17199 12.8246 5.01039 12.434 5.01039 12.0185C5.01039 11.6029 5.17199 11.2123 5.46537 10.9184C5.75864 10.6246 6.14864 10.4627 6.56362 10.4627C6.97849 10.4627 7.3686 10.6246 7.66188 10.9185L10.0801 13.3404L15.8817 7.52982C16.1751 7.23597 16.5651 7.07424 16.98 7.07424C17.3949 7.07424 17.7849 7.23597 18.0782 7.52982C18.684 8.13656 18.684 9.12334 18.0785 9.72985Z" fill="white"/>
</svg>
